<svg width="1013" height="297" viewBox="0 0 1013 297" fill="none" xmlns="http://www.w3.org/2000/svg">
<path d="M209.213 0.000673085H209.73C210.057 0.20473 210.697 0.620252 211.023 0.824309C211.112 2.78474 210.949 4.79904 211.629 6.67731C211.84 9.16842 211.479 11.7545 212.31 14.1641C212.636 17.0977 212.017 20.1531 212.991 23.0052C214.379 34.0055 216.412 122.03 218.408 128.482C220.394 152.027 220.35 131.246 221.981 168.242C213.133 168.487 204.279 168.317 195.425 168.323C202.625 51.1624 202.494 56.6719 209.213 0.000673085Z" fill="black"/>
<path d="M113.94 16.2676C114.362 16.2878 115.2 16.3289 115.621 16.3491C116.293 19.0833 117.023 22.3112 117.023 22.3112C117.139 24.3666 117.043 26.4697 117.718 28.4504C117.969 31.1658 117.5 33.9835 118.384 36.6174C118.792 43.7621 122.398 162.365 124.224 168.163C116.656 168.442 109.087 168.442 101.526 168.19C101.551 163.243 111.089 20.8181 111.089 20.8181C111.932 19.2389 112.858 17.7007 113.94 16.2716V16.2676Z" fill="black"/>
<path d="M422.105 20.419H422.752C423.011 24.8975 422.132 29.5046 423.283 33.8949C423.888 39.3121 422.697 44.8931 423.964 50.2221C424.597 56.327 423.351 62.5888 424.651 68.598C425.284 74.7029 424.032 80.9573 425.325 86.9739C425.93 92.1737 424.753 97.5162 426.005 102.628C426.57 107.147 425.481 111.802 426.693 116.24C427.21 120.303 426.203 124.509 427.374 128.49C427.707 132.438 427.326 136.399 427.659 140.353C428.878 144.777 427.769 149.439 428.347 153.958C429.905 158.573 427.727 163.698 429.599 168.203C420.724 168.673 411.849 167.999 402.975 168.122C405.838 160.98 408.3 67.6424 411.325 36.6163C411.829 35.1259 411.89 33.5467 411.979 31.9883H413.013C413.79 35.8452 415.078 47.3848 415.116 47.4987C415.647 52.0243 414.654 56.6597 415.749 61.1105C416.269 67.74 416.92 69.916 417.376 74.8652H418.614C418.669 73.6812 418.73 72.4966 418.832 71.3194C419.737 68.4539 419.186 65.4186 419.485 62.4783C420.669 58.4969 419.655 54.2911 420.179 50.2208C421.371 46.0218 420.315 41.5844 420.86 37.2897C421.956 33.7642 421.078 30.0211 421.534 26.4074C422.228 24.4874 422.099 22.4246 422.105 20.417V20.419Z" fill="black"/>
<path d="M512.052 29.9473H512.352C512.563 30.3965 512.985 31.3016 513.196 31.7508C513.229 33.6088 513.176 35.5147 513.808 37.2974C514.257 40.9111 513.379 44.6549 514.481 48.1797C514.564 48.8599 518.64 147.777 524.193 168.163C518.611 168.315 471.884 168.073 466.302 168.176C466.263 155.648 468.216 89.9744 471.856 79.2126C472.666 80.3285 473.442 81.4855 474.217 82.6357C476.508 76.8339 475.671 71.9224 479.533 69.7518C479.765 70.2825 480.221 71.358 480.452 71.8887C484.696 118.125 482.227 138.073 488.013 148.777C490.925 164.795 488.416 149.638 490.314 163.342H490.824C491.074 156.508 491.789 130.064 495.493 123.459C496.353 120.68 496.729 106.98 498.508 100.727H500.298C500.312 101.068 500.353 101.748 500.373 102.095C500.822 102.088 501.721 102.088 502.163 102.082C505.495 110.54 503.995 125.056 504.565 134.219C505.784 137.649 504.429 141.379 505.62 144.816C505.715 145.993 505.77 147.178 505.838 148.368H506.409C506.438 147.681 510.827 40.8101 512.052 29.9473Z" fill="black"/>
<path d="M568.589 38.5837C568.835 38.8692 569.332 39.4343 569.583 39.7205C572.11 51.7066 570.368 62.7486 573.605 78.0852C575.403 90.8007 579.099 93.7094 583.379 168.126C574.075 168.187 564.764 168.602 555.46 168.181C555.829 160.051 554.394 159.099 556.917 145.435C557.196 145.708 557.761 146.259 558.047 146.531C558.746 138.991 562.901 69.7781 568.589 38.5837Z" fill="black"/>
<path d="M925.689 42.4751C926.009 42.1821 926.649 41.5901 926.969 41.2979C929.429 51.2138 929.709 61.8268 932.686 70.3588C935.018 80.0539 933.56 95.8861 939.784 95.4457C941.489 99.0992 944.7 134.227 944.773 140.882H945.433C945.624 137.084 944.882 133.164 945.964 129.455C946.256 125.963 945.957 122.451 946.25 118.96C947.298 115.653 946.515 112.141 946.93 108.751C947.869 105.892 947.298 102.844 947.603 99.9033C948.686 96.3508 947.951 92.5734 948.147 88.9253C948.481 89.2182 949.148 89.7893 949.481 90.0823C949.461 92.0016 949.379 93.9755 950.053 95.8195C950.448 99.209 949.672 102.72 950.72 106.028C951.285 110.547 950.189 115.203 951.408 119.634C951.748 123.812 951.34 128.005 951.693 132.177C952.782 135.709 951.917 139.452 952.374 143.073C953.082 145.067 952.926 147.211 952.926 149.294C953.259 149.001 953.926 148.409 954.266 148.117C954.24 145.973 954.076 143.767 954.811 141.705C955.219 138.316 954.436 134.804 955.491 131.496C955.893 125.282 955.376 119.048 955.777 112.834C956.39 111.051 956.342 109.146 956.39 107.288C956.607 106.839 957.036 105.94 957.247 105.491H958.765C959.446 104.749 960.126 104.007 960.827 103.265C961.943 104.729 962.889 106.307 963.774 107.92C963.794 108.227 963.842 108.845 963.862 109.152C964.529 110.077 965.183 111.023 965.836 111.976C965.898 113.133 965.822 113.765 967.082 118.237C967.163 120.3 967.075 122.416 967.748 124.404C967.987 127.126 967.544 129.937 968.422 132.571C968.626 135.382 968.49 138.213 968.707 141.024C969.844 144.774 968.891 148.748 969.388 152.594C970.932 158.189 968.814 161.862 970.845 168.152C952.313 167.928 933.78 168.751 915.247 168.152C915.389 167.478 923.746 77.7675 925.689 42.4717V42.4751Z" fill="black"/>
<path d="M600.592 62.416C600.844 62.6948 601.348 63.2599 601.6 63.5387C604.939 88.7198 606.506 108.561 606.527 114.093C606.854 114.378 607.507 114.964 607.834 115.257C607.977 110.809 609.19 104.415 609.406 103.176C609.794 103.857 610.182 104.544 610.583 105.238C610.583 107.546 610.359 109.928 611.135 112.153C611.584 115.767 610.719 119.511 611.808 123.043C612.536 131.206 610.844 132.008 613.21 137.254C613.265 136.192 613.312 135.13 613.36 134.068C613.632 134.068 614.177 134.075 614.449 134.075C614.7 134.919 614.973 135.756 615.259 136.593C615.32 137.873 615.368 139.152 615.436 140.432C615.66 140.956 616.109 142.011 616.334 142.542C616.913 141.63 617.478 140.718 618.063 139.805C618.298 136.246 619.607 134.359 620.18 129.726C622.356 125.845 621.923 126.263 622.323 119.64C622.323 119.638 624.263 107.124 624.263 107.123C624.542 106.838 625.093 106.273 625.372 105.987C632.474 125.189 629.405 133.973 631.157 148.51C632.301 152.26 631.348 156.234 631.838 160.08C632.709 162.679 632.348 165.463 632.375 168.152C617.396 168.097 602.423 168.179 587.45 168.125C587.45 165.661 587.171 163.129 587.994 160.761C588.436 157.14 587.572 153.403 588.667 149.871C589.028 145.475 588.599 141.051 588.96 136.647C590.212 131.767 589.042 126.649 589.641 121.681C590.833 117.475 589.777 113.044 590.329 108.75C591.254 105.891 590.69 102.842 590.996 99.9019C591.54 98.3159 591.554 96.6282 591.629 94.9742C592.043 95.6618 592.466 96.3555 592.901 97.0498C592.932 97.7246 592.907 111.803 595.011 120.217C595.311 120.503 595.916 121.081 596.216 121.374C599.4 103.862 598.998 70.3917 600.592 62.416Z" fill="black"/>
<path d="M241.909 67.8711C242.188 68.1566 242.74 68.7217 243.019 69.0011C243.045 70.7023 243.039 72.4311 243.624 74.0514C245.638 93.8187 245.593 146.327 245.904 152.92C246.523 151.681 247.034 150.388 247.435 149.061L247.775 149.047C249.439 157.819 249.087 156.575 249.381 160.753C250.253 163.163 249.361 165.892 250.613 168.179C241.752 168.295 232.884 168.002 224.016 168.165C224.021 166.253 225.443 139.076 226.854 131.774C227.5 130.841 228.133 129.902 228.759 128.956C229.464 123.131 229.701 104.41 233.217 99.7047C234.47 102.705 236.049 107.513 236.307 110.703C236.627 110.988 237.26 111.567 237.58 111.86C237.62 111.186 240.36 76.0556 241.909 67.8724V67.8711Z" fill="black"/>
<path d="M691.057 68.0594L691.39 68.0459C694.327 75.5017 691.824 83.7165 696.862 84.6998C700.498 96.8597 700.222 115.886 701.891 165.575C702.17 166.432 702.449 167.297 702.722 168.168C694.241 168.018 685.761 168.168 677.281 168.12C677.218 157.809 680.779 121.82 680.82 121.146H682.065C682.1 121.819 682.715 143.002 683.95 146.865C684.045 148.178 684.1 149.492 684.148 150.812C684.426 151.098 684.978 151.67 685.25 151.956C685.454 151.452 685.856 150.459 686.054 149.955C691.552 48.2497 689.743 79.7068 691.057 68.0627V68.0594Z" fill="black"/>
<path d="M152.063 68.7396L152.322 68.7329C152.539 69.1888 152.968 70.094 153.186 70.5499C153.206 72.6322 153.077 74.763 153.778 76.7639C155.921 93.7471 155.464 146.655 157.508 161.983L158.005 161.99C158.27 157.511 157.378 152.904 158.542 148.514C158.882 144.342 158.481 140.149 158.828 135.977C160.223 131.649 158.508 126.98 159.903 122.658C160.094 120.066 160.005 117.465 160.189 114.879C160.822 113.089 160.76 111.177 160.774 109.312C161.148 108.631 161.523 107.944 161.896 107.27C162.107 108.441 162.325 109.618 162.611 110.789C162.734 112.837 162.666 114.934 163.299 116.914C163.7 122.679 163.189 128.464 163.592 134.221C164.592 137.304 163.911 140.585 164.266 143.749C165.375 147.275 164.497 151.018 164.953 154.639C166.423 159.478 164.47 161.796 166.41 168.163C156.351 168.081 146.292 168.095 136.232 168.163C136.377 160.436 137.715 143.727 139.2 135.684C140.894 136.76 141.038 138.788 141.099 140.605C141.351 140.891 141.841 141.477 142.092 141.769C142.623 140.884 143.154 139.999 143.692 139.122C143.705 138.822 143.739 138.21 143.76 137.904C144.406 136.72 145.046 135.535 145.692 134.351C145.734 134.045 145.815 133.439 145.856 133.139C149.248 125.063 146.79 119.982 148.613 103.99C148.613 103.99 151.041 73.8532 152.063 68.7417V68.7396Z" fill="black"/>
<path d="M333.034 74.188H333.606C333.614 77.0434 336.596 127.212 337.737 137.483L338.193 137.489C338.822 134.624 339.129 133.407 340.174 130.949C341.996 138.136 340.577 142.221 341.228 148.515C342.399 152.496 341.391 156.695 341.916 160.759C342.726 163.147 342.453 165.7 342.453 168.177C342.45 168.177 288.197 168.214 288.006 168.204C288.113 161.618 290.21 110.343 292.954 102.997C293.913 104.528 294.709 106.175 295.798 107.632C297.656 107.169 298.575 105.277 299.494 103.773C300.157 101.286 300.057 102.157 300.284 100.343C300.577 100.043 301.148 99.4513 301.441 99.1516C301.835 99.9887 302.237 100.826 302.625 101.676C305.845 126.048 303.111 112.846 305.116 128.88C305.313 129.336 305.708 130.234 305.905 130.683L306.17 130.69C306.368 130.234 306.762 129.336 306.953 128.88C307.564 123.141 308.651 121.396 309.144 116.657C309.423 116.371 309.988 115.799 310.267 115.513C312.804 122.636 311.389 121.945 311.961 128.097C312.129 128.685 315.229 150.25 315.337 151.775L315.902 151.782C315.835 147.345 318.195 128.86 318.312 128.186C319.998 124.816 321.425 107.96 321.456 107.286C321.66 106.836 322.069 105.945 322.273 105.496H322.641C324.678 116.05 325.621 133.257 327.677 138.178H327.949C328.14 137.722 328.528 136.817 328.725 136.367C328.793 134.727 328.854 133.074 329.372 131.508C329.562 128.915 329.466 126.315 329.657 123.729C330.794 119.972 329.848 115.997 330.338 112.152C331.536 107.953 330.474 103.516 331.026 99.2277C332.176 95.2463 331.182 91.0473 331.706 86.9769C332.578 84.343 332.121 81.532 332.38 78.8166C332.878 77.3189 332.946 75.747 333.034 74.188Z" fill="black"/>
<path d="M667.284 77.8245C667.57 77.5249 668.128 76.9262 668.414 76.6265C669.826 82.1912 673.528 120.073 674.056 127.419C675.356 133.653 674.083 140.139 674.744 146.469C675.833 150.001 674.968 153.745 675.417 157.359C676.472 160.843 675.785 164.533 675.955 168.112C666.651 168.044 657.354 168.664 648.058 168.153C648.106 158.608 650.051 142.913 650.161 141.964C650.562 141.242 650.964 140.521 651.379 139.806C651.42 138.152 651.454 136.485 651.985 134.906C652.352 130.502 651.917 126.079 652.277 121.682C653.373 118.15 652.502 114.407 652.958 110.792C653.714 108.573 653.502 106.198 653.537 103.898C653.754 103.442 654.197 102.537 654.415 102.081L654.687 102.088C655.73 107.97 656.92 115.261 656.899 121.151L657.409 121.145C657.586 120.083 657.777 119.021 657.994 117.967C658.144 117.688 658.43 117.123 658.573 116.844C660.492 105.672 660.763 94.368 663.201 82.0047C663.977 82.998 664.739 83.9988 665.474 85.0332C665.698 85.0467 666.155 85.0878 666.386 85.1012C666.51 79.8584 666.476 81.4498 667.284 77.8245Z" fill="black"/>
<path d="M851.071 78.249L851.336 78.2692C851.553 78.7252 851.989 79.6303 852.207 80.0795C852.479 83.9586 851.663 87.9542 852.779 91.7383C853.14 94.9029 852.452 98.1833 853.46 101.266C853.97 105.329 852.97 109.536 854.133 113.517C854.684 117.805 853.623 122.242 854.821 126.448C855.182 131.069 854.739 135.718 855.107 140.346C855.849 142.489 855.658 144.783 855.658 147.009L856.325 147.016C857.465 125.774 856.476 124.731 859.204 103.451H859.64C859.667 104.129 863.855 150.72 864.683 155.612C866.412 153.066 865.432 149.922 866.384 147.152C866.505 144.96 866.829 109.773 868.038 99.9046C868.671 98.1281 868.597 96.2229 868.617 94.3648C868.93 94.6578 869.563 95.2363 869.876 95.5285C869.922 99.3134 870.952 104.278 871.346 109.868C871.741 110.549 872.136 111.229 872.544 111.917C872.719 111.013 873.946 105.572 874.014 96.3926C874.328 96.6855 874.967 97.2566 875.287 97.5496C875.287 97.5496 876.7 110.017 878.248 131.498C879.296 134.805 878.513 138.317 878.921 141.707C880.065 145.463 879.119 149.438 879.609 153.277C881.072 158.122 879.146 163.35 880.875 168.161C880.875 168.161 809.718 168.177 807.32 168.161C807.174 159.336 811.269 139.333 811.397 138.494C812.336 137.079 813.425 135.765 814.541 134.478C814.793 132.981 815.739 132.015 817.229 131.729C819.046 138.279 818.679 139.664 822.354 163.349L822.769 163.342C824.713 156.039 823.986 151.842 827.145 133.171C827.452 133.457 828.064 134.035 828.37 134.322C828.832 138.798 830.005 141.927 830.65 150.173C831.603 149.492 832.365 148.593 832.883 147.532C837.667 113.644 836.11 116.526 837.96 101.062C838.763 99.9181 839.437 97.924 841.172 99.1288C841.492 99.2103 842.132 99.374 842.458 99.4555C844.477 94.9615 844.739 91.1551 844.908 89.8116C845.732 89.8527 846.569 89.8863 847.413 89.9274C849.728 85.5944 849.28 82.873 851.074 78.249H851.071Z" fill="black"/>
<path d="M718.13 78.9492H719.274C721.68 88.1978 726.134 131.212 726.134 131.212C726.522 136.289 726.039 141.394 726.434 146.471C726.771 147.506 728.408 167.527 728.448 168.202C722.67 168.237 716.898 168.073 711.127 168.175C711.291 166.828 711.467 165.473 711.848 164.16C712.25 160.77 711.467 157.251 712.536 153.951C712.829 151.01 712.257 147.962 713.217 145.109C713.51 142.162 712.951 139.12 713.89 136.262C714.074 133.676 713.985 131.075 714.176 128.489C715.176 125.406 714.489 122.126 714.849 118.961C715.863 115.885 715.169 112.598 715.53 109.433C716.537 106.357 715.85 103.07 716.211 99.9051C717.103 97.2712 716.633 94.4602 716.899 91.7381C717.236 90.7071 718.163 84.1853 718.13 78.9492Z" fill="black"/>
<path d="M61.9617 83.3333C62.7173 82.3736 63.5066 81.4483 64.3714 80.5903C67.5265 90.5474 66.4294 107.201 68.3117 131.499C68.3831 131.717 71.5935 157.753 71.7491 160.077C72.7565 162.691 71.5854 165.685 72.9943 168.169C65.4738 168.224 57.9668 168.53 50.4531 168.149C50.4221 157.819 51.1972 167.172 51.1609 154.237C51.6915 153.352 52.2087 152.468 52.7327 151.59C53.495 152.509 54.2709 153.428 55.0945 154.305C55.6117 150.12 54.5908 145.805 55.7754 141.714C56.2656 137.869 55.3194 133.894 56.4562 130.145C56.7216 126.871 56.4764 123.59 56.7418 120.324C57.6812 117.465 57.1162 114.416 57.4152 111.476C58.2389 109.066 57.8988 106.487 58.1028 103.996C59.144 100.668 58.4295 97.1358 58.7157 93.7194C61.3496 85.9928 59.7285 88.7445 62.0304 84.6405C62.0163 84.3132 61.9826 83.6599 61.9617 83.3333Z" fill="black"/>
<path d="M390.279 85.0779L390.544 85.0645C390.748 85.5136 391.143 86.4255 391.34 86.8747C391.696 95.4498 392.305 83.2657 392.797 115.072C392.79 116.167 393.021 117.243 393.355 118.284C393.654 122.17 393.061 124.963 394.322 128.193C398.191 130.413 398.213 153.759 399.072 161.44C399.834 163.598 399.637 165.905 399.637 168.144C391.17 168.566 382.69 168.409 374.224 168.185C379.914 153.082 375.825 124.816 380.628 104.536C381.234 105.162 381.846 105.795 382.459 106.428C383.346 109.651 382.848 107.592 384.16 112.301L384.644 112.308C384.651 111.9 384.657 111.076 384.664 110.66C385.508 109.041 386.318 107.305 388.006 106.393C388.077 101.287 388.954 89.7706 390.279 85.0779Z" fill="black"/>
<path d="M7.11814 88.6403C7.73098 87.6874 8.45225 86.8092 9.24828 86.0132C14.2204 102.173 22.5416 161.528 22.6426 168.155C15.1087 168.039 7.56733 168.665 0.026652 168.304C0.10814 160.484 -0.163936 152.65 0.176159 144.837C3.16697 135.864 7.04203 89.3145 7.11814 88.641V88.6403Z" fill="black"/>
<path d="M749.648 99.3481H749.954C752.115 104.916 751.342 112.821 755.099 123.469C757.028 128.493 755.339 127.653 758.176 136.57C758.224 136.897 758.305 137.543 758.346 137.863C758.625 138.163 759.183 138.755 759.455 139.054C759.931 138.176 760.415 137.292 760.905 136.414C761.99 130.698 761.414 135.484 762.518 129.71C762.886 129.009 763.267 128.308 763.655 127.614C763.901 129.977 766.479 145.362 766.479 154.511L767.16 154.484C767.16 151.945 767.105 149.4 767.302 146.868C768.527 143.438 767.139 139.687 768.378 136.264C768.736 131.493 768.108 132.655 769.964 117.439C770.379 118.134 770.808 118.821 771.243 119.515C771.291 123.51 771.101 127.511 771.386 131.507C772.38 134.583 771.699 137.864 772.06 141.028C773.122 144.329 772.332 147.848 772.747 151.237C773.748 154.314 773.067 157.594 773.421 160.759C774.04 162.542 773.999 164.447 774.054 166.305C774.251 166.761 774.646 167.659 774.843 168.109C762.456 168.442 750.063 168.476 737.676 168.17C738.695 162.978 738.264 166.886 738.588 162.174C739.473 161.589 740.371 161.01 741.269 160.432C741.417 157.653 742.213 153.131 742.521 151.925C742.634 150.784 742.938 133.333 744.958 129.091C746.161 122.687 747.679 113.534 747.687 113.485C748.625 109.503 747.405 105.359 749.648 99.3481Z" fill="black"/>
<path d="M780.289 122.313C780.555 122.599 781.086 123.164 781.345 123.45C781.345 123.45 784.144 147.829 784.258 150.422L784.639 150.415C784.877 149.571 785.136 148.727 785.408 147.89C785.521 144.837 785.924 139.753 787.382 137.048C790.054 155.192 788.888 160.927 790.533 168.172C785.394 168.124 780.263 168.131 775.131 168.111C775.328 167.661 775.723 166.756 775.92 166.307C775.989 162.547 776.591 160.19 777.52 147.55C778.718 143.113 777.621 138.45 778.2 133.931C778.813 131.864 778.932 126.125 780.289 122.313Z" fill="black"/>
<path d="M182.686 128.199C185.729 133.222 184.183 151.957 187.484 168.163C185.143 168.122 182.802 168.116 180.461 168.163C180.498 167.489 181.014 141.744 182.686 128.199Z" fill="black"/>
<path d="M362.566 142.422C363.559 144.557 365.633 163.962 365.608 168.176C362.817 168.115 360.033 168.115 357.25 168.176C357.294 167.804 359.753 150.552 359.877 149.936C360.645 146.075 360.831 143.89 362.566 142.422Z" fill="black"/>
<path d="M90.8328 144.092C91.1116 144.378 91.6632 144.95 91.942 145.236C92.0208 146.814 94.0351 164.407 94.1065 168.165C92.2619 168.117 90.4179 168.097 88.5801 168.145C88.6333 167.113 88.1457 151.098 90.8328 144.092Z" fill="black"/>
<path d="M264.915 146.571C265.222 146.286 265.834 145.707 266.134 145.421C266.398 146.85 268.317 166.983 268.339 168.153C266.48 168.098 264.629 168.098 262.778 168.146C262.778 166.125 262.669 164.049 263.356 162.109C264.494 145.466 264.312 153.651 264.915 146.571Z" fill="black"/>
<path d="M39.888 153.144C40.2759 153.124 41.045 153.083 41.4329 153.062C41.9366 153.9 42.4404 154.737 42.9441 155.581C43.0458 156.484 44.8163 166.604 45.2446 168.158C41.4672 168.145 37.6898 168.09 33.9131 168.178C34.1037 167.709 34.4781 166.783 34.6687 166.313C35.062 162.529 35.2735 161.087 36.7584 157.466C36.7928 157.139 36.8534 156.486 36.8877 156.159C37.8871 155.159 38.894 154.151 39.888 153.144Z" fill="black"/>
<path d="M988.724 152.692C988.88 153.657 990.385 160.691 990.344 168.088C988.479 168.094 986.621 168.108 984.77 168.156C984.928 165.366 986.298 154.301 988.724 152.692Z" fill="black"/>
<path d="M993.843 158.565L994.38 158.579C994.722 164.569 995.191 160.155 995.142 168.148C994.625 168.141 993.591 168.114 993.073 168.107C993.005 161.963 992.986 164.345 993.843 158.565Z" fill="black"/>
<path d="M898.953 159.488C899.462 162.816 899.982 165.145 900.75 168.145C899.26 168.111 897.783 168.111 896.312 168.145C897.018 161.956 897.476 160.462 898.953 159.488Z" fill="black"/>
<path d="M455.172 167.818H455.002C455.058 167.807 455.116 167.809 455.172 167.818Z" fill="black"/>
<path d="M15.6797 168.748C15.6797 168.748 50.5754 168.641 53.8949 168.734C53.9016 170.98 54.099 173.301 53.3299 175.465C52.9049 181.133 52.02 205.113 48.1369 208.746C46.0465 203.726 46.526 203.326 44.1487 193.971C43.1688 193.971 42.1882 193.971 41.2084 193.977C40.1389 191.707 39.7099 191.496 37.3973 182.659C37.1252 182.36 36.5804 181.754 36.3083 181.454C34.5095 186.043 31.7921 194.107 31.3739 198.333C30.9449 199.054 30.5233 199.769 30.0943 200.491C30.0809 200.804 30.0532 201.424 30.0398 201.729C29.468 202.676 28.9097 203.614 28.3386 204.561C24.2743 203.344 26.0267 199.567 21.6485 186.94C21.0087 187.301 20.369 187.662 19.7359 188.023C19.4295 187.751 18.8173 187.192 18.5109 186.913C18.4281 186.239 15.8103 175.609 15.6797 168.748Z" fill="black"/>
<path d="M67.4854 168.755C68.1595 168.765 98.4023 168.446 103.55 168.72C103.55 179.684 100.92 193.204 100.78 194.256C100.351 194.984 99.9156 195.713 99.4866 196.448C99.4489 197.121 99.0051 224.929 96.5126 237.991C95.4492 233.92 96.8648 238.079 89.0736 214.15C88.8285 214.45 88.3247 215.035 88.0803 215.327C86.6175 222.217 82.7559 268.225 81.1181 272.579C80.778 272.259 80.0971 271.619 79.7571 271.299C79.4264 265.383 78.3354 262.109 78.2189 251.691C78.2189 251.691 73.7141 209.543 73.4818 206.078C69.796 192.538 68.5932 197.554 67.4854 168.755Z" fill="black"/>
<path d="M121.752 168.734C121.754 168.734 195.455 168.564 195.455 168.564C195.121 174.33 192.581 239.721 187.485 242.738C184.082 222.628 185.008 216.134 184.402 210.846C179.513 193.066 179.922 194.235 179.658 190.564H179.107C176.694 235.699 181.479 205.16 173.206 238.008C169.768 263.055 171.524 277.917 168.646 289.699C165.058 282.005 165.896 200.507 162.582 184.438H162.283C161.453 188.558 161.617 186.773 161.371 190.304C161.057 190.611 160.424 191.216 160.105 191.523C158.422 184.655 158.282 178.141 158.022 170.145H157.376C157.369 172.153 157.457 174.208 156.79 176.134C155.957 183.053 156.31 207.08 154.783 212.206C154.695 213.295 154.627 214.391 154.572 215.486C154.259 215.786 153.639 216.398 153.327 216.698C150.735 206.235 150.026 183.796 147.59 174.909L147.188 174.903C144.425 189.222 145.407 198.626 141.519 210.538C141.22 210.239 140.634 209.647 140.335 209.347C140.186 205.29 140.51 207.402 138.62 200.391C135.898 202.133 135.115 205.42 133.55 208.054C133.539 211.789 131.483 234.02 129.364 248.005C129.051 247.705 128.431 247.106 128.119 246.807C125.554 229.044 123.933 185.901 121.754 168.733L121.752 168.734Z" fill="black"/>
<path d="M221.969 168.66C228.4 168.831 234.838 168.748 241.277 168.748C241.012 169.606 240.74 170.47 240.467 171.321C240.312 177.21 239.316 181.318 238.929 186.743C233.605 196.821 234.392 265.962 232.355 272.11C232.231 274.273 232.376 284.113 229.633 285.634C229.49 282.667 229.068 279.74 228.51 276.834C223.418 240.551 223.708 198.774 221.969 168.664V168.66Z" fill="black"/>
<path d="M246.301 168.754C246.976 168.766 281.913 168.315 288.681 168.686C288.681 168.688 281.597 287.039 281.597 287.039C279.514 281.999 279.825 268.636 279.793 267.962C277.261 266.838 277.299 264.255 276.935 257.134C275.887 253.595 276.676 249.865 276.275 246.244C275.07 242.038 276.119 237.608 275.587 233.313C274.376 228.876 275.458 224.22 274.913 219.701C273.749 215.72 274.729 211.521 274.24 207.45C272.36 199.932 275.796 194.27 271.062 185.393C270.441 182.662 270.871 184.572 270.122 181.718L269.796 181.711C267.849 189.433 266.952 203.311 266.917 211.242C266.454 211.01 265.542 210.554 265.085 210.323C264.888 210.562 264.493 211.038 264.303 211.276C264.201 212.74 264.085 214.217 263.65 215.625C263.425 218.341 263.834 221.145 262.976 223.786C262.547 227.399 263.384 231.143 262.295 234.675C261.375 242.319 261.989 270.891 257.572 276.117C254.503 267.366 254.712 215.049 253.141 202.01C252.297 199.505 252.604 196.837 252.61 194.251C252.304 193.958 251.699 193.372 251.392 193.08C250.985 197.031 250.174 201.167 249.813 204.194C249.5 204.194 248.867 204.201 248.553 204.201C248.519 202.56 248.485 200.921 248.376 199.287C247.281 195.754 248.131 192.011 247.703 188.39C246.417 183.286 247.621 177.936 247.015 172.736C246.655 171.429 246.471 170.088 246.301 168.755V168.754Z" fill="black"/>
<path d="M301.368 168.741C303.049 168.789 304.73 168.802 306.418 168.802C306.412 170.803 306.507 172.859 305.833 174.785C304.913 188.295 304.797 187.638 303.968 191.058C303.867 190.453 302.213 172.648 302.178 171.327C301.899 170.463 301.627 169.606 301.368 168.741Z" fill="black"/>
<path d="M308.204 168.795C309.708 168.788 311.212 168.775 312.723 168.754C310.999 176.466 312.757 171.379 311.056 180.596C310.749 180.303 310.144 179.724 309.837 179.432C308.045 167.142 309.789 176.432 308.204 168.795Z" fill="black"/>
<path d="M317.195 168.728C320.693 168.769 324.192 168.754 327.69 168.789C327.499 169.238 327.131 170.13 326.948 170.579C325.046 189.413 321.292 214.654 321.292 214.654C320.965 214.354 320.326 213.755 319.999 213.456C319.972 211.904 319.938 210.359 319.829 208.814C318.903 205.955 319.434 202.913 319.162 199.966C318.039 196.441 318.917 192.691 318.474 189.077C316.898 183.441 319.105 172.207 317.195 168.728Z" fill="black"/>
<path d="M329.317 168.788C330.808 168.782 332.298 168.761 333.796 168.734C332.541 173.634 333.321 171.083 332.163 175.866C331.856 175.56 331.23 174.955 330.924 174.648C330.352 171.222 329.655 169.681 329.317 168.788Z" fill="black"/>
<path d="M340.395 168.721C344.69 168.674 372.929 168.508 376.473 168.728C375.993 181.236 374.433 221.96 370.886 233.554L370.402 233.438C366.116 197.826 366.636 186.477 364.712 180.55C362.747 183.617 364.45 184.717 362.425 193.746C361.023 199.396 359.611 206.186 358.049 223.515C357.627 224.229 357.212 224.944 356.804 225.666C356.532 223.191 356.81 224.365 355.715 220.976C355.055 218.377 356.171 214.892 353.475 213.259C353.227 217.393 352.256 232.911 350.76 238.747C350.291 242.823 351.243 247.023 350.093 251.011C350 251.789 349.202 280.317 348.086 283.714C347.773 281.216 347.888 278.698 347.718 276.193C346.568 272.205 347.527 268.013 347.045 263.942C345.793 259.056 346.935 253.937 346.364 248.969C345.104 243.851 346.276 238.508 345.683 233.315C344.438 228.422 345.58 223.311 345.009 218.343C343.436 212.672 345.629 210.529 343.485 201.954C343.361 201.281 340.357 173.4 340.395 168.721Z" fill="black"/>
<path d="M398.226 168.714C403.466 168.755 408.713 168.857 413.961 168.727C412.368 171.647 413.941 175.145 412.702 178.187C412.248 185.395 411.363 195.991 408.992 202.185C408.516 202.179 407.57 202.151 407.093 202.137C407.106 201.682 407.134 200.77 407.141 200.314C406.345 199.797 405.548 199.293 404.759 198.782C404.242 199.075 403.731 199.374 403.227 199.667C399.004 188.463 400.426 174.205 398.226 168.714Z" fill="black"/>
<path d="M428.651 168.707C434.81 168.524 463.755 168.343 467.105 168.871C467.01 170.402 466.949 171.954 466.452 173.417C466.112 176.589 466.778 179.862 465.785 182.946C465.207 187.696 466.35 192.583 465.104 197.245C464.505 202.669 465.703 208.243 464.431 213.579C463.879 218.098 464.975 222.76 463.743 227.191C463.715 227.533 463.932 228.425 462.851 238.237L462.293 238.223C461.407 231.321 461.506 236.63 461.572 227.32H461.075C458.148 247.6 460.799 262.203 457.645 267.291C455.621 254.475 452.917 217.375 452.697 208.944H452.024C452.001 223.271 450.78 281.092 444.591 292.419C444.627 289.071 443.69 283.526 442.944 279.726H441.978C441.447 285.395 440.46 291.037 440.467 296.741H436.391C436.345 293.474 431.704 182.92 428.651 168.71V168.707Z" fill="black"/>
<path d="M468.607 169.084L468.785 169.078C468.73 169.086 468.671 169.084 468.607 169.084Z" fill="black"/>
<path d="M479.026 168.734C482.763 168.829 486.513 168.734 490.263 168.782C490.161 170.341 490.079 171.913 489.603 173.417C489.005 178.735 490.316 180.537 488.548 187.607C487.288 184.632 487.38 184.351 485.846 178.317H484.873C484.602 180.256 482.79 191.993 482.586 194.216C482.26 193.923 481.6 193.324 481.272 193.025C481.272 184.42 480.113 174.067 479.026 168.734Z" fill="black"/>
<path d="M491.304 168.782C497.735 168.775 504.167 168.788 510.598 168.72C510.598 168.913 504.588 227.19 504.588 227.19C504.518 227.863 504.325 250.726 502.288 258.66C501.981 258.66 501.376 258.653 501.076 258.653C500.995 257.972 497.444 236.141 496.748 225.154C495.543 219.574 496.687 213.789 496.108 208.133C495.655 206.737 494.102 184.99 494.059 184.312C494.06 184.313 492.264 174.016 491.304 168.782Z" fill="black"/>
<path d="M520.639 168.727C532.699 168.51 544.766 168.366 556.825 168.714C556.132 195.482 555.834 200.575 554.001 208.978C553.756 208.964 553.273 208.944 553.035 208.937C552.789 208.501 552.313 207.644 552.075 207.215C552.065 207.89 552.298 219.889 550.169 223.025C549.021 211.189 549.738 226.097 548.672 198.054H548.161C547.821 199.422 547.467 200.783 547.14 202.151C546.875 202.151 546.344 202.151 546.078 202.158C544.782 196.406 544.602 196.101 544.507 192.187C544.221 191.894 543.656 191.316 543.37 191.024C543.234 192.224 542.493 198.26 542.009 199.973C541.825 202.464 542.118 205.037 541.335 207.452C540.741 221.031 542.108 267.243 533.611 296.739H525.484C525.05 209.803 520.674 169.402 520.639 168.729V168.727Z" fill="black"/>
<path d="M575.815 168.748C587.188 168.734 598.567 168.782 609.94 168.768C609.954 171.007 610.124 173.308 609.382 175.465C609.37 175.644 602.391 246.4 600.18 265.95C599.132 264.895 598.377 263.616 597.662 262.336C597.656 262.01 597.635 261.363 597.628 261.037C597.056 260.131 596.498 259.233 595.934 258.335C592.683 263.835 593.808 265.062 592.252 271.225C591.912 270.905 591.231 270.259 590.891 269.932C589.794 258.232 584.993 206.083 584.751 194.653H584.092C584.065 203.354 583.673 197.412 583.329 204.876C583.029 204.876 582.444 204.882 582.145 204.882C575.617 175.383 576.75 180.308 576.415 174.106C575.836 172.377 575.843 170.546 575.815 168.75V168.748Z" fill="black"/>
<path d="M613.993 168.775C626.326 168.966 638.651 168.251 650.977 168.741C650.097 172.674 650.162 171.395 650.044 176.003C649.738 176.302 649.132 176.908 648.832 177.207C648.486 175.989 648.145 174.778 647.832 173.559L647.341 173.539C647.157 177.343 647.9 181.27 646.817 184.986C646.341 188.832 647.273 192.807 646.137 196.563C645.708 200.177 646.545 203.921 645.463 207.453C644.783 213.794 646.547 218.383 643.476 232.594C643.381 233.24 643.292 233.887 643.217 234.533C642.924 234.84 642.339 235.445 642.047 235.752C639.133 225.988 637.124 205.952 637.017 201.279C635.356 196.062 635.215 194.319 634.962 191.928H634.574C632.436 208.607 632.741 228.74 630.947 238.46C630.62 238.16 629.96 237.561 629.626 237.261C629.633 236.125 629.64 234.989 629.66 233.858C629.353 234.151 628.748 234.737 628.448 235.029C627.947 237.604 627.941 238.008 626.577 242.753C625.084 241.491 624.861 239.812 624.059 236.383C623.78 236.098 623.222 235.526 622.943 235.233C623.086 238.078 622.208 240.78 621.337 243.434C621.044 243.741 620.452 244.346 620.159 244.646C619.819 244.339 619.145 243.713 618.805 243.407C613.975 209.942 614.784 181.611 614.531 176.138C613.728 173.764 613.986 171.232 613.993 168.775Z" fill="black"/>
<path d="M666.206 168.734L722.328 168.761C721.317 184.256 719.511 191.267 719.394 191.942C719.136 191.935 718.632 191.935 718.38 191.929C718.04 190.921 717.686 189.914 717.332 188.92C717.06 189.227 716.515 189.846 716.243 190.152C715.953 191.518 708.607 259.606 708.545 260.279C708.226 259.973 707.593 259.367 707.273 259.061C706.756 253.932 703.023 212.978 700.95 205.117C700.698 204.824 700.194 204.239 699.942 203.947C698.595 206.444 697.438 209.044 695.866 211.406C694.145 218.548 690.223 265.873 690.19 266.547C689.863 266.853 689.21 267.466 688.877 267.772C687.545 239.809 680.483 248.447 677.279 181.038H675.945C675.931 182.399 675.925 183.766 675.925 185.135H674.632C673.976 177.977 673.813 183.379 673.883 174.518C673.59 174.232 673.005 173.661 672.712 173.368C671.917 175.631 670.597 183.725 670.439 186.918C670.126 187.211 669.5 187.803 669.187 188.095C668.919 185.802 668.083 179.46 666.206 168.733V168.734Z" fill="black"/>
<path d="M726.952 168.721C732.016 168.374 737.08 168.734 742.15 168.741C741.438 171.946 740.288 223.891 738.713 229.232C738.157 237.562 738.16 232.817 737.801 237.964C737.481 238.271 736.841 238.869 736.521 239.169C736.032 233.747 735.729 236.021 734.997 229.756C734.582 229.028 734.166 228.306 733.758 227.592C733.786 233.001 733.46 240.834 731.206 245.512C729.428 232.68 727.498 180.756 726.952 168.724V168.721Z" fill="black"/>
<path d="M768.302 168.741C768.302 168.741 812.73 168.782 812.731 168.782C812.676 171.688 813.105 174.683 812.2 177.501C811.574 183.381 812.812 189.411 811.519 195.203C810.9 201.084 812.139 207.113 810.846 212.906C810.267 217.874 811.411 222.985 810.165 227.872C809.702 231.711 810.608 235.679 809.492 239.442C809.376 240.98 809.342 242.532 809.321 244.083C808.995 244.383 808.341 244.988 808.015 245.295C806.254 228.774 808.257 236.925 806.409 228.933C806.163 228.64 805.674 228.055 805.429 227.756C804.823 229.573 804.238 231.383 803.734 233.228C803.449 233.528 802.89 234.126 802.612 234.433C802.265 233.044 801.931 231.656 801.665 230.261C801.366 229.968 800.78 229.389 800.481 229.097C800.468 229.968 800.468 230.839 800.475 231.717C799.215 232.942 798.052 234.263 797.174 235.787C795.87 240.928 795.53 242.796 792.492 244.764C792.064 241.986 790.996 235.768 788.701 227.429C787.421 227.205 785.686 227.749 784.951 226.367C784.578 223.826 785.008 219.008 782.528 214.892C781.207 215.6 780.078 216.594 778.886 217.472C777.791 214.852 776.148 186.762 773.115 176.916C772.305 176.943 771.509 176.97 770.719 176.997C769.877 174.745 769.574 174.181 768.302 168.741Z" fill="black"/>
<path d="M816.59 168.775C821.204 168.74 825.819 168.788 830.433 168.74C830.444 176.08 829.889 205.149 828.269 210.358L827.779 210.29C827.071 206.988 825.636 196.419 825.519 194.651H824.533C821.914 203.357 823.835 207.25 822.198 211.951C821.878 211.645 821.252 211.033 820.939 210.726C820.316 205.692 820.25 208.803 819.298 200.626C818.181 196.236 817.971 175.273 816.59 168.775Z" fill="black"/>
<path d="M852.417 168.761C852.812 168.768 853.594 168.788 853.989 168.796C854.316 169.653 854.003 171.015 853.057 171.3C852.566 170.551 852.472 169.625 852.417 168.761Z" fill="black"/>
<path d="M856.121 168.802C873.028 168.466 918.36 168.743 919.035 168.741C918.624 174.584 917.343 179.587 916.462 183.55C916.353 185.068 915.543 186.273 914.182 186.967C914.046 188.96 912.299 233.984 911.29 242.728C910.643 241.788 910.017 240.836 909.405 239.883C907.488 227.423 910.017 238.06 907.125 225.046C901.492 208.362 905.881 203.112 902.348 186.484L901.892 186.477C901.734 189.872 900.053 236.334 897.761 244.62C897.434 244.314 896.781 243.701 896.461 243.395C896.454 242.858 896.448 241.782 896.448 241.245C896.005 241.953 895.584 242.66 895.168 243.375C895.151 244.048 891.553 295.287 890.989 296.74H889.703C889.744 293.766 888.9 290.88 888.907 287.92C888.652 256.38 888.353 270.215 886.709 251.651C880.896 227.238 884.4 216.019 879.331 186.872C878.773 185.932 878.229 185.007 877.67 184.089C874.855 191.993 875.125 195.819 873.941 205.935C873.09 206.793 872.246 207.651 871.416 208.515C867.553 235.408 868.962 238.231 866.604 242.129C866.118 234.059 865.665 226.437 863.357 218.71C862.411 219.996 861.595 221.364 860.812 222.752C860.553 222.467 860.029 221.908 859.764 221.63C858.873 218.821 857.277 178.146 856.121 168.802Z" fill="black"/>
<path d="M946.768 168.748C954.932 168.952 1004.81 168.27 1012.36 168.713C1010.07 185.52 1011.94 205.619 1002.31 240.692C998.607 238.145 998.772 210.128 995.062 196.644C994.592 196.665 993.653 196.699 993.183 196.712C993.157 196.372 993.095 195.678 993.061 195.33L992.509 195.317C992.497 195.99 990.298 244.072 988.304 252.276C988.011 252.569 987.419 253.154 987.126 253.446C985.352 247.393 985.977 248.758 984.771 243.645H984.451C982.459 250.91 982.935 260.961 980.143 277.967C979.817 277.661 979.163 277.056 978.837 276.749C977.421 222.963 974.687 205.228 974.651 204.548C971.252 199.784 971.68 198.226 971.194 189.759C970.057 185.594 970.887 181.218 970.663 176.957L970.112 176.951C970.064 177.624 964.442 227.866 964.02 229.234C963.909 230.133 963.752 248.999 961.427 261.18C960.546 265.944 960.536 266.069 960.406 267.19C960.134 267.49 959.59 268.089 959.317 268.388C958.8 267.497 958.296 266.612 957.806 265.72C954.069 245.343 956.383 247.833 955.527 239.442C954.438 235.91 955.275 232.167 954.853 228.553C953.683 224.571 954.669 220.365 954.173 216.302C953.036 212.545 953.962 208.571 953.499 204.732C952.492 201.649 953.159 198.368 952.826 195.204C951.734 191.938 952.93 192.435 951.376 185.124H950.471C949.532 188.245 949.782 187.227 949.531 188.976C949.198 189.276 948.524 189.861 948.191 190.154C948.227 175.863 946.83 174.21 946.768 168.75V168.748Z" fill="black"/>
</svg>
